#!OML:ASF F:\VICON\USERDATA\INSTALL\rory3\rory3.ASF
:FULLY-SPECIFIED
:DEGREES
179
root -1.02614 18.2782 -3.30383 12.304 -44.2435 23.2688
lowerback 32.5209 -2.85826 3.84374
upperback 9.17317 -2.33288 4.59722
thorax -6.54878 -1.31024 3.59397
lowerneck -19.488 0.928639 -1.07207
upperneck -2.1959 1.28985 0.722567
head 2.65827 0.613841 0.53298
rclavicle -1.90833e-014 -9.54166e-015
rhumerus 25.1315 7.27654 -63.4677
rradius 67.7026
rwrist -0.0657128
rhand -43.7285 1.4516
rfingers 7.12502
rthumb -16.5598 -27.8618
lclavicle -1.90833e-014 -9.54166e-015
lhumerus 29.8803 -29.0017 86.4928
lradius 56.9597
lwrist 29.5359
lhand -26.4503 21.4112
lfingers 7.12502
lthumb 0.110818 51.3909
rfemur -59.326 11.556 -12.4704
rtibia 42.3022
rfoot -11.7598 -12.8464
rtoes -5.12908
lfemur -28.6035 9.27038 -32.1499
ltibia 26.9904
lfoot -11.1114 22.6303
ltoes -15.506
180
root -0.989664 18.2815 -3.30917 12.1035 -43.7465 22.9387
lowerback 31.9089 -2.82167 3.8528
upperback 9.47742 -2.30482 4.62456
thorax -6.57134 -1.2694 3.83972
lowerneck -19.1145 0.997352 -1.39852
upperneck -2.45457 1.4516 0.727023
head 2.4956 0.69756 0.599957
rclavicle 9.54166e-015 -9.14409e-014
rhumerus 24.7345 7.80717 -63.1507
rradius 67.8595
rwrist -0.543728
rhand -43.3505 0.954765
rfingers 7.12502
rthumb -16.1958 -28.3887
lclavicle 9.54166e-015 -9.14409e-014
lhumerus 28.8536 -28.7923 87.2573
lradius 57.069
lwrist 29.1763
lhand -25.7859 21.4531
lfingers 7.12502
lthumb 0.752573 51.4316
rfemur -58.762 11.4855 -12.1206
rtibia 42.3824
rfoot -11.7731 -12.9081
rtoes -5.26707
lfemur -28.2603 9.3584 -31.9748
ltibia 27.1042
lfoot -11.0472 22.6655
ltoes -15.9975
181
root -0.954119 18.2815 -3.31016 11.6805 -43.2817 22.8273
lowerback 31.6608 -2.80902 3.79664
upperback 9.40937 -2.30543 4.71598
thorax -6.53036 -1.26916 3.96498
lowerneck -18.9116 1.05971 -1.69837
upperneck -2.55997 1.59822 0.749995
head 2.41804 0.774789 0.669163
rclavicle -2.8625e-014 -1.13705e-013
rhumerus 24.4048 8.36228 -62.8531
rradius 67.9625
rwrist -0.91782
rhand -43.7305 0.618638
rfingers 7.12502
rthumb -16.5617 -28.6946
lclavicle -2.8625e-014 -1.13705e-013
lhumerus 27.8959 -28.4878 88.0922
lradius 57.0655
lwrist 29.1077
lhand -25.1192 21.5987
lfingers 7.12502
lthumb 1.39647 51.5739
rfemur -58.1447 11.4 -11.9249
rtibia 42.5241
rfoot -11.8552 -13.0076
rtoes -5.48559
lfemur -27.8193 9.4158 -31.9625
ltibia 27.2023
lfoot -10.9888 22.7786
ltoes -16.336
182
root -0.922883 18.2818 -3.31458 11.309 -42.9777 22.5783
lowerback 31.4649 -2.67997 3.68997
upperback 9.40323 -2.18277 4.79367
thorax -6.44661 -1.21306 4.0596
lowerneck -18.9599 1.12133 -1.71568
upperneck -2.61199 1.68905 0.62866
head 2.40781 0.815601 0.639378
rclavicle -3.18055e-015 7.95139e-016
rhumerus 24.0463 8.82748 -62.6228
rradius 68.1421
rwrist -1.42971
rhand -44.1402 0.543457
rfingers 7.12502
rthumb -16.9561 -28.7364
lclavicle -3.18055e-015 7.95139e-016
lhumerus 27.113 -28.3032 88.7907
lradius 57.0464
lwrist 29.4977
lhand -24.8647 21.7067
lfingers 7.12502
lthumb 1.64225 51.6801
rfemur -57.5413 11.5203 -11.666
rtibia 42.5793
rfoot -11.8899 -13.059
rtoes -5.2302
lfemur -27.4765 9.51846 -31.8054
ltibia 27.5018
lfoot -11.1006 22.8304
ltoes -16.3106
183
root -0.874591 18.2816 -3.31943 11.4549 -41.7072 22.3167
lowerback 30.7463 -3.04398 4.33814
upperback 9.20371 -2.46009 4.84938
thorax -6.35022 -1.33456 3.81497
lowerneck -19.1006 1.14576 -1.60828
upperneck -2.57817 1.70613 0.484366
head 2.44646 0.817586 0.576051
rclavicle -6.36111e-014 -3.97569e-014
rhumerus 23.5772 9.23869 -62.4731
rradius 68.3399
rwrist -2.05066
rhand -44.126 0.616367
rfingers 7.12502
rthumb -16.9424 -28.6647
lclavicle -6.36111e-014 -3.97569e-014
lhumerus 26.2861 -28.2527 89.4392
lradius 57.082
lwrist 30.1913
lhand -24.7887 21.6892
lfingers 7.12502
lthumb 1.71566 51.6621
rfemur -56.9347 10.8291 -11.4185
rtibia 42.6463
rfoot -12.0143 -13.3081
rtoes -5.0426
lfemur -27.704 8.69717 -31.5675
ltibia 27.8202
lfoot -11.0451 22.7928
ltoes -16.1229
184
root -0.836444 18.2813 -3.32939 11.2518 -40.9976 22.0816
lowerback 30.4677 -3.07129 4.57195
upperback 9.08543 -2.42976 4.86394
thorax -6.36414 -1.31604 3.67529
lowerneck -19.2737 1.11292 -1.50019
upperneck -2.4821 1.64749 0.354675
head 2.51382 0.782141 0.512188
rclavicle -6.04305e-014 4.29375e-014
rhumerus 23.0479 9.59135 -62.3448
rradius 68.546
rwrist -2.63796
rhand -43.8578 0.592788
rfingers 7.12502
rthumb -16.6843 -28.7102
lclavicle -6.04305e-014 4.29375e-014
lhumerus 25.5095 -28.2826 90.1441
lradius 57.0717
lwrist 31.1766
lhand -24.5039 21.9472
lfingers 7.12502
lthumb 1.99067 51.9177
rfemur -56.3098 10.6469 -11.1777
rtibia 42.6818
rfoot -12.1181 -13.5357
rtoes -5.54982
lfemur -27.603 8.56806 -31.4433
ltibia 28.1729
lfoot -10.9555 22.7231
ltoes -16.4475
185
root -0.802184 18.2822 -3.33647 10.9479 -40.619 21.7904
lowerback 30.3766 -3.02968 4.47715
upperback 8.94755 -2.38403 5.02189
thorax -6.46975 -1.29472 3.89355
lowerneck -19.1885 1.14416 -1.90192
upperneck -2.42256 1.78075 0.31167
head 2.51488 0.850235 0.579516
rclavicle -2.22639e-014 3.02153e-014
rhumerus 22.6849 10.5918 -61.9587
rradius 68.7955
rwrist -3.36242
rhand -43.9331 0.432215
rfingers 7.12502
rthumb -16.7568 -28.8646
lclavicle -2.22639e-014 3.02153e-014
lhumerus 24.6028 -27.7812 91.1321
lradius 57.0649
lwrist 32.3681
lhand -24.2296 22.4617
lfingers 7.12502
lthumb 2.25562 52.4295
rfemur -55.712 10.7108 -10.8925
rtibia 42.7042
rfoot -12.173 -13.6911
rtoes -5.94723
lfemur -27.3823 8.67549 -31.303
ltibia 28.5313
lfoot -11.0737 22.6321
ltoes -16.2515
186
root -0.765061 18.2809 -3.34879 10.8201 -40.1804 21.3436
lowerback 30.2738 -2.92479 4.65714
upperback 8.88422 -2.20647 4.96023
thorax -6.50846 -1.20843 3.65498
lowerneck -19.6649 1.2213 -1.38924
upperneck -2.19877 1.78833 0.0736492
head 2.68623 0.839833 0.417418
rclavicle -5.725e-014 5.88403e-014
rhumerus 22.1467 11.1056 -61.8618
rradius 69.1773
rwrist -3.97824
rhand -44.3015 -0.0999148
rfingers 7.12502
rthumb -17.1114 -29.3664
lclavicle -5.725e-014 5.88403e-014
lhumerus 24.0892 -27.8656 91.6112
lradius 56.9842
lwrist 33.7372
lhand -24.215 22.9966
lfingers 7.12502
lthumb 2.26968 52.9643
rfemur -55.186 10.7506 -10.5139
rtibia 42.7037
rfoot -12.219 -13.8482
rtoes -5.68016
lfemur -27.2268 8.63205 -30.9708
ltibia 28.7889
lfoot -11.6192 22.4589
ltoes -14.501
187
root -0.727597 18.2787 -3.35579 10.5957 -39.6366 21.0575
lowerback 30.0758 -2.92494 4.7238
upperback 8.85934 -2.20411 4.87283
thorax -6.45066 -1.20423 3.50663
lowerneck -20.0689 1.37429 -0.859003
upperneck -2.15003 1.88339 -0.15513
head 2.78359 0.873325 0.25947
rclavicle 4.13472e-014 1.27222e-014
rhumerus 21.6023 11.9181 -61.6453
rradius 69.8112
rwrist -4.5363
rhand -44.6386 -0.683599
rfingers 7.12502
rthumb -17.4359 -29.9216
lclavicle 4.13472e-014 1.27222e-014
lhumerus 23.6629 -27.5202 92.1483
lradius 56.796
lwrist 35.0275
lhand -23.9707 23.3304
lfingers 7.12502
lthumb 2.50562 53.2955
rfemur -54.5992 10.6746 -10.2478
rtibia 42.7332
rfoot -12.2698 -14.0337
rtoes -5.70827
lfemur -26.968 8.55667 -30.8087
ltibia 28.8958
lfoot -11.9679 22.3497
ltoes -13.2546
188
root -0.692716 18.2836 -3.3472 10.2677 -39.0206 20.9352
lowerback 29.6301 -3.00021 4.85698
upperback 8.8097 -2.29563 4.75935
thorax -6.30548 -1.24283 3.3105
lowerneck -20.0638 1.49144 -0.53203
upperneck -2.23055 1.97149 -0.330274
head 2.75897 0.908647 0.150068
rclavicle 9.22361e-014 -6.83819e-014
rhumerus 20.9925 12.9119 -61.3931
rradius 70.4187
rwrist -4.78269
rhand -45.3598 -1.36925
rfingers 7.12502
rthumb -18.1298 -30.5443
lclavicle 9.22361e-014 -6.83819e-014
lhumerus 23.0121 -27.0276 92.9785
lradius 56.7043
lwrist 36.3824
lhand -23.8154 23.2231
lfingers 7.12502
lthumb 2.65563 53.1863
rfemur -53.8615 10.4701 -10.0928
rtibia 42.7482
rfoot -12.3738 -14.1314
rtoes -5.89475
lfemur -26.6166 8.4792 -30.8501
ltibia 28.975
lfoot -12.0315 22.3201
ltoes -11.397
189
root -0.662578 18.2859 -3.33247 9.73471 -38.4426 21.2836
lowerback 29.0744 -3.02943 4.62397
upperback 8.69929 -2.4349 4.61111
thorax -6.1668 -1.30268 3.29685
lowerneck -19.9128 1.59709 -0.486371
upperneck -2.22501 2.10776 -0.404063
head 2.73443 0.975264 0.127748
rclavicle 2.22639e-014 -5.56597e-014
rhumerus 20.5144 14.1401 -61.0894
rradius 70.8385
rwrist -4.49737
rhand -45.9177 -1.38474
rfingers 7.12502
rthumb -18.6666 -30.5091
lclavicle 2.22639e-014 -5.56597e-014
lhumerus 22.2875 -26.3623 94.0288
lradius 56.6825
lwrist 37.9305
lhand -23.9348 23.252
lfingers 7.12502
lthumb 2.54035 53.2166
rfemur -53.1611 10.1179 -10.3473
rtibia 42.772
rfoot -12.531 -14.1475
rtoes -6.09576
lfemur -26.2445 8.44724 -31.3893
ltibia 29.0111
lfoot -11.9361 22.3918
ltoes -8.94095
190
root -0.628156 18.2924 -3.32724 9.56051 -38.0212 20.7877
lowerback 28.8121 -2.96817 4.83856
upperback 8.65072 -2.30838 4.69857
thorax -6.10281 -1.24266 3.2171
lowerneck -19.7954 1.59865 -0.796941
upperneck -2.19243 2.18225 -0.369425
head 2.7202 1.01712 0.199781
rclavicle 3.81667e-014 -7.31528e-014
rhumerus 20.1566 15.3525 -60.5345
rradius 71.1636
rwrist -3.6322
rhand -46.2998 -1.12184
rfingers 7.12502
rthumb -19.034 -30.2105
lclavicle 3.81667e-014 -7.31528e-014
lhumerus 21.8079 -25.8163 95.0698
lradius 56.6651
lwrist 39.7271
lhand -24.2086 23.62
lfingers 7.12502
lthumb 2.27594 53.5876
rfemur -52.4637 10.1877 -9.90378
rtibia 42.7354
rfoot -12.5568 -14.2491
rtoes -6.03441
lfemur -25.7924 8.60507 -31.1905
ltibia 29.0674
lfoot -11.8739 22.6978
ltoes -8.39241
191
root -0.591066 18.2976 -3.32765 9.24315 -37.6244 20.4783
lowerback 28.5875 -2.81374 4.97316
upperback 8.58907 -2.0835 4.77785
thorax -6.07077 -1.13553 3.14442
lowerneck -19.4542 1.49424 -1.2308
upperneck -2.27899 2.14005 -0.345001
head 2.62232 1.00203 0.277147
rclavicle 1.08139e-013 -1.47896e-013
rhumerus 19.6978 16.5083 -59.7579
rradius 71.5323
rwrist -2.51488
rhand -47.0444 -0.986581
rfingers 7.12502
rthumb -19.7499 -30.0032
lclavicle 1.08139e-013 -1.47896e-013
lhumerus 21.3963 -25.4688 96.2217
lradius 56.6639
lwrist 41.611
lhand -24.6715 24.3383
lfingers 7.12502
lthumb 1.82887 54.3102
rfemur -51.7652 10.2102 -9.59562
rtibia 42.6765
rfoot -12.5556 -14.2956
rtoes -5.85697
lfemur -25.4354 8.80061 -31.0895
ltibia 29.1996
lfoot -12.2662 22.8718
ltoes -8.55518
